<?xml version="1.0" standalone="no"?>
<!DOCTYPE svg PUBLIC "-//W3C//DTD SVG 20010904//EN"
 "http://www.w3.org/TR/2001/REC-SVG-20010904/DTD/svg10.dtd">
<svg version="1.0" xmlns="http://www.w3.org/2000/svg"
 width="24" height="24" viewBox="0 0 300.000000 300.000000"
 preserveAspectRatio="xMidYMid meet">
<metadata>
Created by potrace 1.15, written by Peter Selinger 2001-2017
</metadata>
<g transform="translate(0.000000,300.000000) scale(0.100000,-0.100000)"
fill="#262626" stroke="none">
<path d="M1255 2985 c-234 -44 -444 -131 -629 -262 -104 -74 -275 -245 -349
-350 -118 -166 -210 -378 -254 -583 -26 -121 -26 -459 0 -580 100 -469 403
-859 822 -1059 82 -40 188 -82 240 -96 6 -1 13 -3 17 -4 4 -1 22 -6 39 -11 18
-5 51 -12 73 -15 23 -4 58 -10 80 -15 21 -5 113 -8 205 -8 258 0 456 46 677
158 419 213 715 609 803 1075 24 123 26 389 5 509 -56 317 -201 595 -429 821
-205 203 -427 327 -720 402 -88 22 -124 26 -305 28 -138 2 -228 -1 -275 -10z
m400 -105 c256 -33 451 -108 655 -251 70 -50 290 -261 290 -279 0 -5 10 -20
23 -33 25 -28 114 -174 119 -197 2 -8 6 -17 10 -21 18 -13 88 -223 109 -324
29 -143 32 -382 5 -525 -21 -116 -64 -248 -116 -354 -44 -92 -128 -226 -140
-226 -5 0 -12 -9 -15 -20 -10 -30 -188 -207 -270 -268 -325 -240 -747 -325
-1160 -231 -61 14 -235 77 -254 92 -7 6 -19 12 -27 13 -19 3 -172 95 -201 122
-13 12 -28 22 -33 22 -18 0 -229 220 -279 290 -243 347 -319 759 -215 1165 9
33 19 64 22 70 4 5 8 18 9 29 5 31 67 168 110 241 122 208 300 386 508 508 73
43 210 105 241 110 11 1 24 5 29 9 13 8 119 35 170 44 146 24 294 29 410 14z"/>
<path d="M2180 2219 c-30 -16 -98 -53 -150 -81 -52 -28 -122 -65 -155 -83 -33
-18 -143 -78 -245 -132 -102 -55 -224 -121 -272 -147 l-86 -47 -78 -142 c-78
-144 -103 -191 -166 -307 -224 -415 -279 -522 -275 -527 5 -5 187 87 213 108
6 5 14 6 17 2 4 -3 7 -1 7 6 0 7 4 10 9 7 5 -4 11 -2 13 3 1 5 50 33 108 63
58 30 121 64 140 76 47 28 232 127 300 160 30 15 57 29 60 32 3 3 28 17 55 32
54 28 74 59 252 398 36 69 69 130 73 135 4 6 31 55 60 110 29 55 56 102 61
103 5 2 7 8 3 13 -3 5 0 9 5 9 6 0 10 3 9 8 -2 4 23 55 55 113 31 59 57 110
57 113 0 11 -15 6 -70 -25z m-684 -724 c81 -80 145 -147 143 -149 -4 -3 -50
-28 -324 -176 -104 -56 -219 -118 -254 -137 l-64 -36 30 54 c34 61 95 174 263
487 30 56 56 102 57 102 1 0 68 -65 149 -145z"/>
</g>
</svg>
