<svg xmlns="http://www.w3.org/2000/svg" width="44" height="38" viewBox="0 0 44 38"><g><g><path fill="#959699" d="M31.638 2c1.78 0 3.544.514 5.104 1.487 5.035 3.14 6.75 10.148 3.825 15.622-2.09 3.909-10.79 11.229-18.236 16.776a.573.573 0 0 1-.69 0C14.196 30.338 5.496 23.018 3.407 19.109.48 13.635 2.196 6.626 7.23 3.487A9.649 9.649 0 0 1 12.334 2c3.136 0 6.07 1.525 8.047 4.182l1.605 2.155 1.604-2.155C25.57 3.524 28.503 2 31.638 2c3.136 0 0 0 0 0zm-9.652 2.988C19.593 1.773 16.006 0 12.334 0 10.24 0 8.117.576 6.172 1.79.252 5.48-1.775 13.658 1.642 20.052c2.787 5.214 14.553 14.27 18.804 17.436a2.574 2.574 0 0 0 3.08 0c4.251-3.166 16.018-12.222 18.805-17.436 3.417-6.394 1.39-14.57-4.53-18.262C35.855.577 33.732 0 31.638 0c-3.672 0-7.257 1.772-9.652 4.988z"/></g></g></svg>