<svg xmlns="http://www.w3.org/2000/svg" width="44" height="41" viewBox="0 0 44 41"><g><g><path fill="#959699" d="M2 37.969V23.022c0-.816.317-1.584.892-2.161L21.42 2.251a.815.815 0 0 1 1.16 0L41.11 20.86c.574.577.891 1.345.891 2.161V37.97c0 .57-.462 1.035-1.03 1.035H29.03c-.568 0-1.03-.464-1.03-1.035v-9.01c0-3.323-2.691-6.026-6-6.026-3.308 0-6 2.703-6 6.026v9.01c0 .57-.462 1.035-1.03 1.035H3.03c-.568 0-1.03-.464-1.03-1.035zM22 0c-.722 0-1.443.277-1.994.83L1.477 19.44A5.078 5.078 0 0 0 0 23.022V37.97a3.037 3.037 0 0 0 3.03 3.043h11.94A3.036 3.036 0 0 0 18 37.97v-9.01a4.009 4.009 0 0 1 4-4.017c2.21 0 4 1.798 4 4.017v9.01a3.037 3.037 0 0 0 3.03 3.043h11.94A3.037 3.037 0 0 0 44 37.97V23.022a5.078 5.078 0 0 0-1.477-3.582L23.995.83A2.805 2.805 0 0 0 22 0c-.721 0 0 0 0 0z"/></g></g></svg>