<!DOCTYPE svg PUBLIC "-//W3C//DTD SVG 20010904//EN" "http://www.w3.org/TR/2001/REC-SVG-20010904/DTD/svg10.dtd">
<svg version="1.0" xmlns="http://www.w3.org/2000/svg" width="200px" height="200px" viewBox="0 0 2000 2000" preserveAspectRatio="xMidYMid meet">
<g id="layer101" fill="#262626" stroke="none">
 <path d="M841 1948 c-10 -24 -24 -64 -31 -90 -13 -44 -17 -47 -59 -58 -26 -6 -81 -27 -124 -47 l-78 -37 -78 39 -79 38 -29 -21 c-45 -32 -163 -160 -163 -177 0 -9 16 -48 36 -87 l36 -72 -36 -75 c-19 -42 -41 -96 -48 -120 -13 -47 -24 -55 -133 -88 l-55 -17 0 -142 0 -141 85 -29 85 -29 16 -50 c9 -27 32 -83 50 -122 l35 -72 -36 -70 c-19 -39 -35 -79 -35 -89 0 -23 169 -192 192 -192 10 0 50 16 89 35 l70 36 72 -35 c39 -18 95 -41 122 -50 l50 -16 29 -85 29 -85 141 0 141 0 30 87 30 87 66 21 c37 12 91 34 121 50 l53 28 72 -37 c40 -20 79 -36 88 -36 17 0 145 118 177 163 l21 29 -38 79 -39 78 37 78 c20 43 41 98 47 123 11 45 12 46 73 64 34 10 74 25 90 32 l27 15 0 123 c0 69 -3 131 -6 140 -3 8 -43 27 -88 41 l-83 26 -17 58 c-10 32 -31 85 -47 117 -16 33 -29 63 -29 67 0 5 16 40 35 78 19 39 35 77 35 85 0 19 -175 194 -194 194 -8 0 -46 -16 -85 -35 -38 -19 -73 -35 -78 -35 -4 0 -33 13 -64 29 -30 15 -83 36 -117 46 l-61 18 -26 83 c-14 45 -33 85 -41 88 -9 3 -72 6 -140 6 l-125 0 -18 -42z m242 -289 c368 -57 626 -392 577 -748 -37 -261 -212 -471 -465 -557 -69 -23 -97 -27 -200 -28 -99 0 -132 4 -190 23 -197 65 -338 187 -420 366 -47 102 -60 165 -59 290 1 123 27 220 87 325 90 159 276 290 462 325 91 17 121 17 208 4z"/>
 </g>

</svg>