<?xml version="1.0" standalone="no"?>
<!DOCTYPE svg PUBLIC "-//W3C//DTD SVG 20010904//EN"
 "http://www.w3.org/TR/2001/REC-SVG-20010904/DTD/svg10.dtd">
<svg version="1.0" xmlns="http://www.w3.org/2000/svg"
 width="286.000000pt" height="277.000000pt" viewBox="0 0 286.000000 277.000000"
 preserveAspectRatio="xMidYMid meet">
<metadata>
Created by potrace 1.15, written by Peter Selinger 2001-2017
</metadata>
<g transform="translate(0.000000,277.000000) scale(0.100000,-0.100000)"
fill="#262626" stroke="none">
<path d="M1230 2689 c-228 -59 -417 -211 -526 -421 -67 -130 -87 -216 -87
-373 1 -111 4 -143 27 -218 42 -142 96 -235 195 -341 102 -107 244 -192 391
-232 91 -25 309 -25 400 0 437 120 697 553 593 986 -22 94 -86 224 -151 309
-104 136 -276 248 -446 291 -108 27 -291 27 -396 -1z m405 -90 c261 -81 444
-274 506 -536 17 -72 20 -108 16 -198 -9 -200 -73 -344 -216 -485 -147 -146
-304 -210 -511 -210 -211 0 -366 64 -515 214 -99 100 -146 177 -187 306 -30
97 -33 299 -6 398 76 273 304 481 586 532 78 15 248 4 327 -21z"/>
<path d="M1285 2520 c-214 -46 -404 -235 -409 -405 -1 -45 1 -50 22 -53 31 -5
47 10 61 60 37 126 123 226 239 281 62 30 76 32 179 34 62 1 117 4 123 8 17
11 12 62 -7 70 -29 11 -165 15 -208 5z"/>
<path d="M862 1978 c-16 -16 -16 -200 0 -216 15 -15 55 -16 64 -1 10 17 12
191 2 212 -10 20 -48 23 -66 5z"/>
<path d="M660 859 c-244 -64 -451 -245 -545 -477 -32 -79 -57 -207 -53 -273
l3 -54 35 0 35 0 12 95 c25 194 82 311 212 440 95 94 174 142 301 182 l75 23
695 0 695 0 75 -23 c127 -40 206 -88 301 -182 130 -129 187 -246 212 -440 l12
-95 35 0 35 0 3 54 c2 30 -4 89 -12 131 -62 303 -291 543 -590 620 -76 19
-108 20 -770 19 -653 0 -695 -1 -766 -20z"/>
</g>
</svg>
