<svg xmlns="http://www.w3.org/2000/svg" width="42" height="42" viewBox="0 0 42 42"><g><g><path fill="#959699" d="M18.498 1.94c-9.129 0-16.555 7.427-16.555 16.555 0 9.129 7.426 16.555 16.555 16.555 9.128 0 16.554-7.426 16.555-16.555 0-9.128-7.427-16.555-16.555-16.555 0 0 9.128 0 0 0zm0-1.947C28.716-.007 37 8.277 37 18.495c0 4.76-1.797 9.099-4.749 12.377l9.333 9.332-1.377 1.377-9.332-9.332a18.434 18.434 0 0 1-12.377 4.749c-10.22 0-18.503-8.284-18.503-18.503C-.005 8.277 8.28-.007 18.498-.007z"/></g></g></svg>